<svg xmlns="http://www.w3.org/2000/svg" width="255" height="75" viewBox="0 0 255 75">
  <g fill="none" fill-rule="evenodd" transform="translate(1 1)">
    <path fill="#4A4A4A" d="M81.622 44.758L66.502 22.294 66.502 44.542C66.502 44.938002 66.3580014 45.2799986 66.07 45.568 65.7819986 45.8560014 65.440002 46 65.044 46L60.67 46C60.273998 46 59.9320014 45.8560014 59.644 45.568 59.3559986 45.2799986 59.212 44.938002 59.212 44.542L59.212 9.658C59.212 9.26199802 59.3559986 8.92000144 59.644 8.632 59.9320014 8.34399856 60.273998 8.2 60.67 8.2L64.45 8.2C65.2780041 8.2 65.9799971 8.61399586 66.556 9.442L81.676 31.906 81.676 9.658C81.676 9.26199802 81.8199986 8.92000144 82.108 8.632 82.3960014 8.34399856 82.737998 8.2 83.134 8.2L87.508 8.2C87.904002 8.2 88.2459986 8.34399856 88.534 8.632 88.8220014 8.92000144 88.966 9.26199802 88.966 9.658L88.966 44.542C88.966 44.938002 88.8220014 45.2799986 88.534 45.568 88.2459986 45.8560014 87.904002 46 87.508 46L83.728 46C82.8999959 46 82.1980029 45.5860041 81.622 44.758zM122.932 32.014C122.932 32.9500047 122.896 33.8499957 122.824 34.714 122.643999 36.910011 121.978006 38.907991 120.826 40.708 119.673994 42.508009 118.09901 43.9299948 116.101 44.974 114.10299 46.0180052 111.826013 46.54 109.27 46.54 106.713987 46.54 104.43701 46.0180052 102.439 44.974 100.44099 43.9299948 98.8660058 42.508009 97.714 40.708 96.5619942 38.907991 95.8960009 36.910011 95.716 34.714 95.6799998 34.2819978 95.662 33.3820068 95.662 32.014 95.662 30.609993 95.6799998 29.6920022 95.716 29.26 95.8960009 27.0279888 96.5619942 25.012009 97.714 23.212 98.8660058 21.411991 100.44099 19.9900052 102.439 18.946 104.43701 17.9019948 106.713987 17.38 109.27 17.38 111.826013 17.38 114.10299 17.9019948 116.101 18.946 118.09901 19.9900052 119.673994 21.411991 120.826 23.212 121.978006 25.012009 122.643999 27.0279888 122.824 29.26 122.896 30.1240043 122.932 31.0419951 122.932 32.014zM104.869 25.156C103.662994 26.0200043 102.952001 27.4779897 102.736 29.53 102.7 29.8900018 102.682 30.6999937 102.682 31.96 102.682 33.2200063 102.7 34.0299982 102.736 34.39 102.952001 36.4420103 103.662994 37.8999957 104.869 38.764 106.075006 39.6280043 107.541991 40.06 109.27 40.06 110.998009 40.06 112.464994 39.6280043 113.671 38.764 114.877006 37.8999957 115.587999 36.4420103 115.804 34.39 115.876 33.6699964 115.912 32.8600045 115.912 31.96 115.912 31.0599955 115.876 30.2500036 115.804 29.53 115.587999 27.4779897 114.877006 26.0200043 113.671 25.156 112.464994 24.2919957 110.998009 23.86 109.27 23.86 107.541991 23.86 106.075006 24.2919957 104.869 25.156zM139.429 38.575C140.059003 39.2050031 141.147992 39.52 142.696 39.52L145.99 39.52C146.386002 39.52 146.727999 39.6639986 147.016 39.952 147.304001 40.2400014 147.448 40.581998 147.448 40.978L147.448 44.542C147.448 44.938002 147.304001 45.2799986 147.016 45.568 146.727999 45.8560014 146.386002 46 145.99 46L141.994 46C138.573983 46 135.964009 45.1630084 134.164 43.489 132.363991 41.8149916 131.464 39.3220166 131.464 36.01L131.464 24.4 127.9 24.4C127.503998 24.4 127.162001 24.2560014 126.874 23.968 126.585999 23.6799986 126.442 23.338002 126.442 22.942L126.442 19.378C126.442 18.981998 126.585999 18.6400014 126.874 18.352 127.162001 18.0639986 127.503998 17.92 127.9 17.92L131.464 17.92 131.464 9.118C131.464 8.72199802 131.607999 8.38000144 131.896 8.092 132.184001 7.80399856 132.525998 7.66 132.922 7.66L137.026 7.66C137.422002 7.66 137.763999 7.80399856 138.052 8.092 138.340001 8.38000144 138.484 8.72199802 138.484 9.118L138.484 17.92 145.45 17.92C145.846002 17.92 146.187999 18.0639986 146.476 18.352 146.764001 18.6400014 146.908 18.981998 146.908 19.378L146.908 22.942C146.908 23.338002 146.764001 23.6799986 146.476 23.968 146.187999 24.2560014 145.846002 24.4 145.45 24.4L138.484 24.4 138.484 35.848C138.484 37.0360059 138.798997 37.9449968 139.429 38.575zM159.598 8.092C159.886001 8.38000144 160.03 8.72199802 160.03 9.118L160.03 13.33C160.03 13.726002 159.886001 14.0679986 159.598 14.356 159.309999 14.6440014 158.968002 14.788 158.572 14.788L153.928 14.788C153.531998 14.788 153.190001 14.6440014 152.902 14.356 152.613999 14.0679986 152.47 13.726002 152.47 13.33L152.47 9.118C152.47 8.72199802 152.613999 8.38000144 152.902 8.092 153.190001 7.80399856 153.531998 7.66 153.928 7.66L158.572 7.66C158.968002 7.66 159.309999 7.80399856 159.598 8.092zM159.328 45.568C159.039999 45.8560014 158.698002 46 158.302 46L154.198 46C153.801998 46 153.460001 45.8560014 153.172 45.568 152.883999 45.2799986 152.74 44.938002 152.74 44.542L152.74 19.378C152.74 18.981998 152.883999 18.6400014 153.172 18.352 153.460001 18.0639986 153.801998 17.92 154.198 17.92L158.302 17.92C158.698002 17.92 159.039999 18.0639986 159.328 18.352 159.616001 18.6400014 159.76 18.981998 159.76 19.378L159.76 44.542C159.76 44.938002 159.616001 45.2799986 159.328 45.568zM190.216 39.952C190.504001 40.2400014 190.648 40.581998 190.648 40.978L190.648 44.542C190.648 44.938002 190.504001 45.2799986 190.216 45.568 189.927999 45.8560014 189.586002 46 189.19 46L167.266 46C166.869998 46 166.528001 45.8560014 166.24 45.568 165.951999 45.2799986 165.808 44.938002 165.808 44.542L165.808 40.87C165.808 40.2219968 166.059997 39.6100029 166.564 39.034L180.064 24.4 167.806 24.4C167.409998 24.4 167.068001 24.2560014 166.78 23.968 166.491999 23.6799986 166.348 23.338002 166.348 22.942L166.348 19.378C166.348 18.981998 166.491999 18.6400014 166.78 18.352 167.068001 18.0639986 167.409998 17.92 167.806 17.92L188.11 17.92C188.506002 17.92 188.847999 18.0639986 189.136 18.352 189.424001 18.6400014 189.568 18.981998 189.568 19.378L189.568 23.05C189.568 23.6260029 189.316003 24.2379968 188.812 24.886L175.312 39.52 189.19 39.52C189.586002 39.52 189.927999 39.6639986 190.216 39.952zM215.218 19.243C217.23401 20.4850062 218.790995 22.1499896 219.889 24.238 220.987005 26.3260104 221.536 28.6119876 221.536 31.096L221.536 33.526C221.536 33.922002 221.392001 34.2639986 221.104 34.552 220.815999 34.8400014 220.474002 34.984 220.078 34.984L202.042 34.984C202.042 36.5320077 202.653994 37.7649954 203.878 38.683 205.102006 39.6010046 206.559992 40.06 208.252 40.06 210.23201 40.06 211.761995 39.6460041 212.842 38.818 213.238002 38.5299986 213.561999 38.3320005 213.814 38.224 214.066001 38.1159995 214.407998 38.062 214.84 38.062L219.16 38.062C219.556002 38.062 219.897999 38.1969986 220.186 38.467 220.474001 38.7370013 220.618 39.0519982 220.618 39.412 220.618 40.1680038 220.123005 41.1219942 219.133 42.274 218.142995 43.4260058 216.712009 44.4249958 214.84 45.271 212.967991 46.1170042 210.772013 46.54 208.252 46.54 205.587987 46.54 203.25701 45.9280061 201.259 44.704 199.26099 43.4799939 197.722005 41.770011 196.642 39.574 195.561995 37.377989 195.022 34.8400144 195.022 31.96 195.022 29.2599865 195.561995 26.8030111 196.642 24.589 197.722005 22.3749889 199.26999 20.6200065 201.286 19.324 203.30201 18.0279935 205.623987 17.38 208.252 17.38 210.880013 17.38 213.20199 18.0009938 215.218 19.243zM214.246 28.828C213.849998 25.5159834 211.852018 23.86 208.252 23.86 206.379991 23.86 204.913005 24.363995 203.851 25.372 202.788995 26.380005 202.186001 27.5319935 202.042 28.828L214.246 28.828zM253.342 45.568C253.053999 45.8560014 252.712002 46 252.316 46L248.212 46C247.815998 46 247.474001 45.8560014 247.186 45.568 246.897999 45.2799986 246.754 44.938002 246.754 44.542L246.754 30.826C246.754 28.5939888 246.232005 26.8480063 245.188 25.588 244.143995 24.3279937 242.61401 23.698 240.598 23.698 238.725991 23.698 237.232006 24.3459935 236.116 25.642 234.999994 26.9380065 234.442 28.6659892 234.442 30.826L234.442 44.542C234.442 44.938002 234.298001 45.2799986 234.01 45.568 233.721999 45.8560014 233.380002 46 232.984 46L228.88 46C228.483998 46 228.142001 45.8560014 227.854 45.568 227.565999 45.2799986 227.422 44.938002 227.422 44.542L227.422 19.378C227.422 18.981998 227.565999 18.6400014 227.854 18.352 228.142001 18.0639986 228.483998 17.92 228.88 17.92L232.984 17.92C233.380002 17.92 233.721999 18.0639986 234.01 18.352 234.298001 18.6400014 234.442 18.981998 234.442 19.378L234.442 20.62C236.602011 18.4599892 239.193985 17.38 242.218 17.38 246.28602 17.38 249.228991 18.5499883 251.047 20.89 252.865009 23.2300117 253.774 26.2719813 253.774 30.016L253.774 44.542C253.774 44.938002 253.630001 45.2799986 253.342 45.568zM57.59 69.558C58.0753358 70.0526691 58.7566623 70.3 59.634 70.3 60.4273373 70.3 61.057331 70.1366683 61.524 69.81 61.990669 69.4833317 62.3126658 68.9233373 62.49 68.13 62.5273335 67.933999 62.6299992 67.836 62.798 67.836L63.078 67.836C63.1620004 67.836 63.234333 67.8616664 63.295 67.913 63.355667 67.9643336 63.3813334 68.0319996 63.372 68.116 63.3439999 68.6013358 63.1970013 69.0749977 62.931 69.537 62.6649987 69.9990023 62.2566694 70.3816652 61.706 70.685 61.1553306 70.9883349 60.4646708 71.14 59.634 71.14 58.4206606 71.14 57.5106697 70.7970034 56.904 70.111 56.2973303 69.4249966 55.9706669 68.5033391 55.924 67.346 55.9146666 67.0939987 55.91 66.6833362 55.91 66.114 55.91 65.5353304 55.9146666 65.1153346 55.924 64.854 55.9706669 63.6966609 56.2973303 62.7750034 56.904 62.089 57.5106697 61.4029966 58.4206606 61.06 59.634 61.06 60.4646708 61.06 61.1553306 61.2116651 61.706 61.515 62.2566694 61.8183349 62.6649987 62.2009977 62.931 62.663 63.1970013 63.1250023 63.3439999 63.5986642 63.372 64.084L63.372 64.112C63.372 64.186667 63.3440003 64.2473331 63.288 64.294 63.2319997 64.3406669 63.1620004 64.364 63.078 64.364L62.798 64.364C62.6299992 64.364 62.5273335 64.266001 62.49 64.07 62.3126658 63.2766627 61.990669 62.7166683 61.524 62.39 61.057331 62.0633317 60.4273373 61.9 59.634 61.9 58.7566623 61.9 58.0753358 62.1473309 57.59 62.642 57.1046642 63.1366691 56.8433335 63.8973282 56.806 64.924 56.7966666 65.1760013 56.792 65.5633307 56.792 66.086 56.792 66.6086693 56.7966666 67.005332 56.806 67.276 56.8433335 68.3026718 57.1046642 69.0633309 57.59 69.558zM66.186 68.55L65.318 70.79C65.2993332 70.8366669 65.2643336 70.8833331 65.213 70.93 65.1616664 70.9766669 65.0940004 71 65.01 71L64.73 71C64.655333 71 64.5900003 70.9720003 64.534 70.916 64.4779997 70.8599997 64.45 70.794667 64.45 70.72L64.478 70.566 68.02 61.48C68.094667 61.2933324 68.229999 61.2 68.426 61.2L68.902 61.2C69.098001 61.2 69.233333 61.2933324 69.308 61.48L72.85 70.566 72.878 70.72C72.878 70.794667 72.8500003 70.8599997 72.794 70.916 72.7379997 70.9720003 72.672667 71 72.598 71L72.318 71C72.2339996 71 72.1663336 70.9766669 72.115 70.93 72.0636664 70.8833331 72.0286668 70.8366669 72.01 70.79L71.142 68.55 66.186 68.55zM70.806 67.71L68.664 62.194 66.522 67.71 70.806 67.71zM80.627 63.706C80.5756664 63.7620003 80.5033338 63.79 80.41 63.79L80.13 63.79C80.0646663 63.79 79.9993337 63.7690002 79.934 63.727 79.8686663 63.6849998 79.8313334 63.6126672 79.822 63.51 79.7659997 63.043331 79.5163355 62.6583348 79.073 62.355 78.6296644 62.0516651 78.0720034 61.9 77.4 61.9 76.6813297 61.9 76.1096688 62.0399986 75.685 62.32 75.2603312 62.6000014 75.048 63.0199972 75.048 63.58 75.048 63.9440018 75.1436657 64.2449988 75.335 64.483 75.5263343 64.7210012 75.8133314 64.9263325 76.196 65.099 76.5786686 65.2716675 77.1433296 65.4793321 77.89 65.722 78.6553372 65.9646679 79.2526645 66.1979989 79.682 66.422 80.1113355 66.6460011 80.4356656 66.9166651 80.655 67.234 80.8743344 67.5513349 80.984 67.9619975 80.984 68.466 80.984 69.3060042 80.6713365 69.9616643 80.046 70.433 79.4206635 70.9043357 78.5620055 71.14 77.47 71.14 76.7419964 71.14 76.1096693 71.0210012 75.573 70.783 75.0363306 70.5449988 74.6256681 70.2346686 74.341 69.852 74.0563319 69.4693314 73.9046668 69.0586689 73.886 68.62 73.886 68.545333 73.9139997 68.4800003 73.97 68.424 74.0260003 68.3679997 74.0959996 68.34 74.18 68.34L74.46 68.34C74.6280008 68.34 74.7306665 68.4333324 74.768 68.62 74.8333337 69.0680022 75.0899978 69.4599983 75.538 69.796 75.9860022 70.1320017 76.6299958 70.3 77.47 70.3 78.3566711 70.3 79.0169978 70.1390016 79.451 69.817 79.8850022 69.4949984 80.102 69.0446696 80.102 68.466 80.102 68.1113316 79.997001 67.8196678 79.787 67.591 79.5769989 67.3623322 79.2713353 67.1616675 78.87 66.989 78.4686647 66.8163325 77.8620041 66.5993346 77.05 66.338 76.3313297 66.1046655 75.769002 65.8760011 75.363 65.652 74.956998 65.4279989 74.656001 65.1526683 74.46 64.826 74.263999 64.4993317 74.166 64.0840025 74.166 63.58 74.166 63.1039976 74.294332 62.6746686 74.551 62.292 74.8076679 61.9093314 75.1786642 61.6083344 75.664 61.389 76.1493358 61.1696656 76.7279966 61.06 77.4 61.06 78.0906701 61.06 78.6833309 61.1836654 79.178 61.431 79.6726691 61.6783346 80.0459987 61.9909981 80.298 62.369 80.5500013 62.7470019 80.6853332 63.1273314 80.704 63.51 80.704 63.584667 80.6783336 63.6499997 80.627 63.706zM92.562 61.284C92.6180003 61.3400003 92.646 61.4193328 92.646 61.522L92.646 61.732C92.646 61.8253338 92.615667 61.8999997 92.555 61.956 92.494333 62.0120003 92.4173338 62.04 92.324 62.04L87.494 62.04 87.494 65.806 92.044 65.806C92.1466672 65.806 92.2259997 65.8339997 92.282 65.89 92.3380003 65.9460003 92.366 66.0253328 92.366 66.128L92.366 66.338C92.366 66.4313338 92.335667 66.5059997 92.275 66.562 92.214333 66.6180003 92.1373338 66.646 92.044 66.646L87.494 66.646 87.494 70.692C87.494 70.7853338 87.463667 70.8599997 87.403 70.916 87.342333 70.9720003 87.2653338 71 87.172 71L86.92 71C86.8266662 71 86.7520003 70.9720003 86.696 70.916 86.6399997 70.8599997 86.612 70.7853338 86.612 70.692L86.612 61.522C86.612 61.4286662 86.6399997 61.351667 86.696 61.291 86.7520003 61.230333 86.8266662 61.2 86.92 61.2L92.324 61.2C92.4266672 61.2 92.5059997 61.2279997 92.562 61.284zM100.71 70.244C100.766 70.3000003 100.794 70.3793328 100.794 70.482L100.794 70.692C100.794 70.7853338 100.763667 70.8599997 100.703 70.916 100.642333 70.9720003 100.565334 71 100.472 71L94.9 71C94.8066662 71 94.7320003 70.9720003 94.676 70.916 94.6199997 70.8599997 94.592 70.7853338 94.592 70.692L94.592 61.522C94.592 61.4286662 94.6199997 61.351667 94.676 61.291 94.7320003 61.230333 94.8066662 61.2 94.9 61.2L100.36 61.2C100.462667 61.2 100.542 61.2279997 100.598 61.284 100.654 61.3400003 100.682 61.4193328 100.682 61.522L100.682 61.732C100.682 61.8253338 100.651667 61.8999997 100.591 61.956 100.530333 62.0120003 100.453334 62.04 100.36 62.04L95.474 62.04 95.474 65.61 100.052 65.61C100.154667 65.61 100.234 65.6379997 100.29 65.694 100.346 65.7500003 100.374 65.8293328 100.374 65.932L100.374 66.142C100.374 66.2353338 100.343667 66.3099997 100.283 66.366 100.222333 66.4220003 100.145334 66.45 100.052 66.45L95.474 66.45 95.474 70.16 100.472 70.16C100.574667 70.16 100.654 70.1879997 100.71 70.244zM108.998 70.244C109.054 70.3000003 109.082 70.3793328 109.082 70.482L109.082 70.692C109.082 70.7853338 109.051667 70.8599997 108.991 70.916 108.930333 70.9720003 108.853334 71 108.76 71L103.188 71C103.094666 71 103.02 70.9720003 102.964 70.916 102.908 70.8599997 102.88 70.7853338 102.88 70.692L102.88 61.522C102.88 61.4286662 102.908 61.351667 102.964 61.291 103.02 61.230333 103.094666 61.2 103.188 61.2L108.648 61.2C108.750667 61.2 108.83 61.2279997 108.886 61.284 108.942 61.3400003 108.97 61.4193328 108.97 61.522L108.97 61.732C108.97 61.8253338 108.939667 61.8999997 108.879 61.956 108.818333 62.0120003 108.741334 62.04 108.648 62.04L103.762 62.04 103.762 65.61 108.34 65.61C108.442667 65.61 108.522 65.6379997 108.578 65.694 108.634 65.7500003 108.662 65.8293328 108.662 65.932L108.662 66.142C108.662 66.2353338 108.631667 66.3099997 108.571 66.366 108.510333 66.4220003 108.433334 66.45 108.34 66.45L103.762 66.45 103.762 70.16 108.76 70.16C108.862667 70.16 108.942 70.1879997 108.998 70.244zM120.849 61.949C121.423003 62.4483358 121.71 63.164662 121.71 64.098 121.71 65.031338 121.423003 65.7476642 120.849 66.247 120.274997 66.7463358 119.488672 66.996 118.49 66.996L115.662 66.996 115.662 70.692C115.662 70.7853338 115.631667 70.8599997 115.571 70.916 115.510333 70.9720003 115.433334 71 115.34 71L115.088 71C114.994666 71 114.92 70.9720003 114.864 70.916 114.808 70.8599997 114.78 70.7853338 114.78 70.692L114.78 61.522C114.78 61.4286662 114.808 61.351667 114.864 61.291 114.92 61.230333 114.994666 61.2 115.088 61.2L118.49 61.2C119.488672 61.2 120.274997 61.4496642 120.849 61.949zM118.42 66.156C119.222671 66.156 119.824665 65.9810018 120.226 65.631 120.627335 65.2809983 120.828 64.7700034 120.828 64.098 120.828 63.4259966 120.627335 62.9150017 120.226 62.565 119.824665 62.2149983 119.222671 62.04 118.42 62.04L115.662 62.04 115.662 66.156 118.42 66.156zM126.666 63.72C126.759334 63.72 126.834 63.7479997 126.89 63.804 126.946 63.8600003 126.974 63.9346662 126.974 64.028L126.974 64.224C126.974 64.3173338 126.946 64.3919997 126.89 64.448 126.834 64.5040003 126.759334 64.532 126.666 64.532L126.064 64.532C125.503997 64.532 125.060668 64.6953317 124.734 65.022 124.407332 65.3486683 124.244 65.7919972 124.244 66.352L124.244 70.692C124.244 70.7853338 124.213667 70.8599997 124.153 70.916 124.092333 70.9720003 124.015334 71 123.922 71L123.698 71C123.604666 71 123.53 70.9720003 123.474 70.916 123.418 70.8599997 123.39 70.7853338 123.39 70.692L123.39 64.042C123.39 63.9486662 123.418 63.871667 123.474 63.811 123.53 63.750333 123.604666 63.72 123.698 63.72L123.922 63.72C124.015334 63.72 124.092333 63.750333 124.153 63.811 124.213667 63.871667 124.244 63.9486662 124.244 64.042L124.244 64.686C124.580002 64.0419968 125.214662 63.72 126.148 63.72L126.666 63.72zM134.156 67.36C134.156 67.6586682 134.151333 67.8546662 134.142 67.948 134.114 68.8906714 133.831669 69.6583304 133.295 70.251 132.758331 70.8436696 132.004672 71.14 131.034 71.14 130.063328 71.14 129.309669 70.8436696 128.773 70.251 128.236331 69.6583304 127.954 68.8906714 127.926 67.948L127.912 67.36 127.926 66.772C127.954 65.8293286 128.236331 65.0616696 128.773 64.469 129.309669 63.8763304 130.063328 63.58 131.034 63.58 132.004672 63.58 132.758331 63.8763304 133.295 64.469 133.831669 65.0616696 134.114 65.8293286 134.142 66.772 134.151333 66.8653338 134.156 67.0613318 134.156 67.36zM129.431 65.029C129.024998 65.4536688 128.808 66.0579961 128.78 66.842L128.766 67.36 128.78 67.878C128.808 68.6620039 129.024998 69.2663312 129.431 69.691 129.837002 70.1156688 130.37133 70.328 131.034 70.328 131.69667 70.328 132.230998 70.1156688 132.637 69.691 133.043002 69.2663312 133.26 68.6620039 133.288 67.878 133.297333 67.7846662 133.302 67.6120013 133.302 67.36 133.302 67.1079987 133.297333 66.9353338 133.288 66.842 133.26 66.0579961 133.043002 65.4536688 132.637 65.029 132.230998 64.6043312 131.69667 64.392 131.034 64.392 130.37133 64.392 129.837002 64.6043312 129.431 65.029zM137.117 62.138C137.056333 62.1940003 136.979334 62.222 136.886 62.222L136.354 62.222C136.260666 62.222 136.186 62.1940003 136.13 62.138 136.074 62.0819997 136.046 62.0073338 136.046 61.914L136.046 61.382C136.046 61.2886662 136.074 61.211667 136.13 61.151 136.186 61.090333 136.260666 61.06 136.354 61.06L136.886 61.06C136.979334 61.06 137.056333 61.090333 137.117 61.151 137.177667 61.211667 137.208 61.2886662 137.208 61.382L137.208 61.914C137.208 62.0073338 137.177667 62.0819997 137.117 62.138zM136.284 63.804C136.34 63.7479997 136.414666 63.72 136.508 63.72L136.746 63.72C136.839334 63.72 136.914 63.7479997 136.97 63.804 137.026 63.8600003 137.054 63.9346662 137.054 64.028L137.054 71.308C137.054 72.045337 136.900002 72.6216646 136.592 73.037 136.283998 73.4523354 135.733337 73.66 134.94 73.66L134.884 73.66C134.790666 73.66 134.716 73.6320003 134.66 73.576 134.604 73.5199997 134.576 73.4453338 134.576 73.352L134.576 73.156C134.576 73.0626662 134.604 72.9880003 134.66 72.932 134.716 72.8759997 134.790666 72.848 134.884 72.848L134.94 72.848C135.453336 72.848 135.791666 72.7173346 135.955 72.456 136.118334 72.1946654 136.2 71.8120025 136.2 71.308L136.2 64.028C136.2 63.9346662 136.228 63.8600003 136.284 63.804zM144.313 64.546C144.859003 65.1900032 145.132 66.0719944 145.132 67.192L145.132 67.402C145.132 67.4953338 145.101667 67.5699997 145.041 67.626 144.980333 67.6820003 144.903334 67.71 144.81 67.71L139.826 67.71 139.826 67.85C139.844667 68.2886689 139.944999 68.6969981 140.127 69.075 140.309001 69.4530019 140.563332 69.7563322 140.89 69.985 141.216668 70.2136678 141.599331 70.328 142.038 70.328 142.551336 70.328 142.968998 70.2276677 143.291 70.027 143.613002 69.8263323 143.843999 69.6233344 143.984 69.418 144.068 69.3059994 144.131 69.2360001 144.173 69.208 144.215 69.1799999 144.291999 69.166 144.404 69.166L144.628 69.166C144.712 69.166 144.782 69.1893331 144.838 69.236 144.894 69.2826669 144.922 69.343333 144.922 69.418 144.922 69.614001 144.798335 69.8496653 144.551 70.125 144.303665 70.4003347 143.960669 70.6383323 143.522 70.839 143.083331 71.0396677 142.588669 71.14 142.038 71.14 141.151329 71.14 140.437336 70.8483362 139.896 70.265 139.354664 69.6816637 139.046667 68.9000049 138.972 67.92L138.958 67.36 138.972 66.8C139.046667 65.8293285 139.352331 65.0500029 139.889 64.462 140.425669 63.8739971 141.141996 63.58 142.038 63.58 143.008672 63.58 143.766997 63.9019968 144.313 64.546zM144.278 66.926L144.278 66.87C144.278 66.1513297 144.075002 65.558669 143.669 65.092 143.262998 64.625331 142.719337 64.392 142.038 64.392 141.356663 64.392 140.817669 64.625331 140.421 65.092 140.024331 65.558669 139.826 66.1513297 139.826 66.87L139.826 66.926 144.278 66.926zM152.272 70.44C152.393334 70.5520006 152.454 70.645333 152.454 70.72 152.454 70.8040004 152.428334 70.8716664 152.377 70.923 152.325666 70.9743336 152.258 71 152.174 71L151.95 71C151.809999 71 151.707334 70.9883334 151.642 70.965 151.576666 70.9416666 151.483334 70.8740006 151.362 70.762L147.848 67.64 147.848 70.692C147.848 70.7853338 147.82 70.8599997 147.764 70.916 147.708 70.9720003 147.633334 71 147.54 71L147.302 71C147.208666 71 147.134 70.9720003 147.078 70.916 147.022 70.8599997 146.994 70.7853338 146.994 70.692L146.994 61.368C146.994 61.2746662 147.022 61.2000003 147.078 61.144 147.134 61.0879997 147.208666 61.06 147.302 61.06L147.54 61.06C147.633334 61.06 147.708 61.0879997 147.764 61.144 147.82 61.2000003 147.848 61.2746662 147.848 61.368L147.848 66.324 150.97 63.958C151.119334 63.8459994 151.222 63.7783334 151.278 63.755 151.334 63.7316666 151.427333 63.72 151.558 63.72L151.824 63.72C151.908 63.72 151.975666 63.7456664 152.027 63.797 152.078334 63.8483336 152.104 63.9159996 152.104 64 152.104 64.1026672 152.043334 64.1959996 151.922 64.28L148.38 66.968 152.272 70.44zM155.457 69.789C155.629668 70.0550013 155.916665 70.188 156.318 70.188L157.074 70.188C157.167334 70.188 157.242 70.2159997 157.298 70.272 157.354 70.3280003 157.382 70.4026662 157.382 70.496L157.382 70.692C157.382 70.7853338 157.354 70.8599997 157.298 70.916 157.242 70.9720003 157.167334 71 157.074 71L156.248 71C155.55733 71 155.067335 70.7923354 154.778 70.377 154.488665 69.9616646 154.344 69.3900036 154.344 68.662L154.344 64.532 153.252 64.532C153.158666 64.532 153.084 64.5040003 153.028 64.448 152.972 64.3919997 152.944 64.3173338 152.944 64.224L152.944 64.028C152.944 63.9346662 152.972 63.8600003 153.028 63.804 153.084 63.7479997 153.158666 63.72 153.252 63.72L154.344 63.72 154.344 61.368C154.344 61.2746662 154.372 61.2000003 154.428 61.144 154.484 61.0879997 154.558666 61.06 154.652 61.06L154.89 61.06C154.983334 61.06 155.058 61.0879997 155.114 61.144 155.17 61.2000003 155.198 61.2746662 155.198 61.368L155.198 63.72 156.934 63.72C157.027334 63.72 157.102 63.7479997 157.158 63.804 157.214 63.8600003 157.242 63.9346662 157.242 64.028L157.242 64.224C157.242 64.3173338 157.214 64.3919997 157.158 64.448 157.102 64.5040003 157.027334 64.532 156.934 64.532L155.198 64.532 155.198 68.606C155.198 69.1286693 155.284332 69.5229987 155.457 69.789zM165.656 70.916C165.6 70.9720003 165.525334 71 165.432 71L165.166 71C165.072666 71 164.998 70.9720003 164.942 70.916 164.886 70.8599997 164.858 70.7853338 164.858 70.692L164.858 62.348 162.352 64.28C162.277333 64.3266669 162.212 64.35 162.156 64.35 162.062666 64.35 161.983334 64.3080004 161.918 64.224L161.764 64.028C161.717333 63.9626663 161.694 63.8973337 161.694 63.832 161.694 63.7386662 161.736 63.6593337 161.82 63.594L164.802 61.298C164.895334 61.2326663 165.016666 61.2 165.166 61.2L165.432 61.2C165.525334 61.2 165.6 61.2279997 165.656 61.284 165.712 61.3400003 165.74 61.4146662 165.74 61.508L165.74 70.692C165.74 70.7853338 165.712 70.8599997 165.656 70.916z"/>
    <polygon stroke="#4A4A4A" stroke-width="2" points="10 57 7 55 4 57 4 52 10 52" stroke-linejoin="round"/>
    <path stroke="#4A4A4A" stroke-width="2" d="M38.003,52 L0,52 L0,0.003 L38.003,0.003 C39.658,0.003 41,1.345 41,3 L41,49.003 C41,50.658 39.658,52 38.003,52 L38.003,52 Z" stroke-linejoin="round"/>
    <polygon stroke="#4A4A4A" stroke-width="2" points="30 .003 35 .003 35 52 30 52" stroke-linejoin="round"/>
    <polygon stroke="#4A4A4A" stroke-width="2" points="0 35.01 30 35.01 30 17.01 0 17.01" stroke-linejoin="round"/>
    <polygon stroke="#4A4A4A" stroke-width="2" points="35 35.01 41 35.01 41 17.01 35 17.01" stroke-linejoin="round"/>
  </g>
</svg>
